<?xml version="1.0" encoding="us-ascii" standalone="no"?><svg xmlns="http://www.w3.org/2000/svg" xmlns:xlink="http://www.w3.org/1999/xlink" contentStyleType="text/css" height="486px" preserveAspectRatio="none" style="width:427px;height:486px;background:#FFFFFF;" version="1.1" viewBox="0 0 427 486" width="427px" zoomAndPan="magnify"><defs/><g><!--cluster pygame--><g id="cluster_pygame"><path d="M84,6 L139,6 A3.75,3.75 0 0 1 141.5,8.5 L148.5,29.6094 L359,29.6094 A2.5,2.5 0 0 1 361.5,32.1094 L361.5,206.5 A2.5,2.5 0 0 1 359,209 L84,209 A2.5,2.5 0 0 1 81.5,206.5 L81.5,8.5 A2.5,2.5 0 0 1 84,6 " fill="none" style="stroke:#000000;stroke-width:1.5;"/><line style="stroke:#000000;stroke-width:1.5;" x1="81.5" x2="148.5" y1="29.6094" y2="29.6094"/><text fill="#000000" font-family="sans-serif" font-size="14" font-weight="bold" lengthAdjust="spacing" textLength="54" x="85.5" y="22.5332">pygame</text></g><!--cluster sprite--><g id="cluster_sprite"><path d="M108,50 L150,50 A3.75,3.75 0 0 1 152.5,52.5 L159.5,73.6094 L335,73.6094 A2.5,2.5 0 0 1 337.5,76.1094 L337.5,182.5 A2.5,2.5 0 0 1 335,185 L108,185 A2.5,2.5 0 0 1 105.5,182.5 L105.5,52.5 A2.5,2.5 0 0 1 108,50 " fill="none" style="stroke:#000000;stroke-width:1.5;"/><line style="stroke:#000000;stroke-width:1.5;" x1="105.5" x2="159.5" y1="73.6094" y2="73.6094"/><text fill="#000000" font-family="sans-serif" font-size="14" font-weight="bold" lengthAdjust="spacing" textLength="41" x="109.5" y="66.5332">sprite</text></g><!--class Sprite--><g id="elem_Sprite"><rect codeLine="3" fill="#F1F1F1" height="48" id="Sprite" rx="2.5" ry="2.5" style="stroke:#181818;stroke-width:0.5;" width="69" x="252" y="103.5"/><ellipse cx="267" cy="119.5" fill="#ADD1B2" rx="11" ry="11" style="stroke:#181818;stroke-width:1.0;"/><path d="M269.7656,115.375 Q269.9219,115.1563 270.1094,115.0469 Q270.2969,114.9375 270.5156,114.9375 Q270.8906,114.9375 271.125,115.1953 Q271.3594,115.4531 271.3594,116.0625 L271.3594,117.5156 Q271.3594,118.125 271.125,118.3906 Q270.8906,118.6563 270.5156,118.6563 Q270.1719,118.6563 269.9688,118.4531 Q269.7656,118.2656 269.6563,117.75 Q269.6094,117.3906 269.4219,117.2031 Q269.0938,116.8281 268.4844,116.6094 Q267.875,116.3906 267.25,116.3906 Q266.4844,116.3906 265.8516,116.7188 Q265.2188,117.0469 264.7266,117.7969 Q264.2344,118.5469 264.2344,119.5781 L264.2344,120.6719 Q264.2344,121.9063 265.125,122.7266 Q266.0156,123.5469 267.6094,123.5469 Q268.5469,123.5469 269.2031,123.2969 Q269.5938,123.1406 270.0156,122.7031 Q270.2813,122.4375 270.4297,122.3594 Q270.5781,122.2813 270.7813,122.2813 Q271.1094,122.2813 271.3672,122.5391 Q271.625,122.7969 271.625,123.1406 Q271.625,123.4844 271.2813,123.8906 Q270.7813,124.4688 269.9844,124.7969 Q268.9063,125.25 267.6094,125.25 Q266.0938,125.25 264.8906,124.625 Q263.9063,124.125 263.2188,123.0547 Q262.5313,121.9844 262.5313,120.7031 L262.5313,119.5469 Q262.5313,118.2188 263.1484,117.0703 Q263.7656,115.9219 264.8594,115.3047 Q265.9531,114.6875 267.1875,114.6875 Q267.9219,114.6875 268.5703,114.8516 Q269.2188,115.0156 269.7656,115.375 Z " fill="#000000"/><text fill="#000000" font-family="sans-serif" font-size="14" lengthAdjust="spacing" textLength="37" x="281" y="125.2285">Sprite</text><line style="stroke:#181818;stroke-width:0.5;" x1="253" x2="320" y1="135.5" y2="135.5"/><line style="stroke:#181818;stroke-width:0.5;" x1="253" x2="320" y1="143.5" y2="143.5"/></g><!--class Group--><g id="elem_Group"><rect codeLine="6" fill="#F1F1F1" height="83.2188" id="Group" rx="2.5" ry="2.5" style="stroke:#181818;stroke-width:0.5;" width="95" x="122" y="86"/><ellipse cx="147.35" cy="102" fill="#ADD1B2" rx="11" ry="11" style="stroke:#181818;stroke-width:1.0;"/><path d="M150.1156,97.875 Q150.2719,97.6563 150.4594,97.5469 Q150.6469,97.4375 150.8656,97.4375 Q151.2406,97.4375 151.475,97.6953 Q151.7094,97.9531 151.7094,98.5625 L151.7094,100.0156 Q151.7094,100.625 151.475,100.8906 Q151.2406,101.1563 150.8656,101.1563 Q150.5219,101.1563 150.3188,100.9531 Q150.1156,100.7656 150.0063,100.25 Q149.9594,99.8906 149.7719,99.7031 Q149.4438,99.3281 148.8344,99.1094 Q148.225,98.8906 147.6,98.8906 Q146.8344,98.8906 146.2016,99.2188 Q145.5688,99.5469 145.0766,100.2969 Q144.5844,101.0469 144.5844,102.0781 L144.5844,103.1719 Q144.5844,104.4063 145.475,105.2266 Q146.3656,106.0469 147.9594,106.0469 Q148.8969,106.0469 149.5531,105.7969 Q149.9438,105.6406 150.3656,105.2031 Q150.6313,104.9375 150.7797,104.8594 Q150.9281,104.7813 151.1313,104.7813 Q151.4594,104.7813 151.7172,105.0391 Q151.975,105.2969 151.975,105.6406 Q151.975,105.9844 151.6313,106.3906 Q151.1313,106.9688 150.3344,107.2969 Q149.2563,107.75 147.9594,107.75 Q146.4438,107.75 145.2406,107.125 Q144.2563,106.625 143.5688,105.5547 Q142.8813,104.4844 142.8813,103.2031 L142.8813,102.0469 Q142.8813,100.7188 143.4984,99.5703 Q144.1156,98.4219 145.2094,97.8047 Q146.3031,97.1875 147.5375,97.1875 Q148.2719,97.1875 148.9203,97.3516 Q149.5688,97.5156 150.1156,97.875 Z " fill="#000000"/><text fill="#000000" font-family="sans-serif" font-size="14" lengthAdjust="spacing" textLength="40" x="163.65" y="107.7285">Group</text><line style="stroke:#181818;stroke-width:0.5;" x1="123" x2="216" y1="118" y2="118"/><line style="stroke:#181818;stroke-width:0.5;" x1="123" x2="216" y1="126" y2="126"/><ellipse cx="133" cy="140.3047" fill="#84BE84" rx="3" ry="3" style="stroke:#038048;stroke-width:1.0;"/><text fill="#000000" font-family="sans-serif" font-size="14" lengthAdjust="spacing" textLength="69" x="142" y="144.5332">add(sprite)</text><ellipse cx="133" cy="157.9141" fill="#84BE84" rx="3" ry="3" style="stroke:#038048;stroke-width:1.0;"/><text fill="#000000" font-family="sans-serif" font-size="14" lengthAdjust="spacing" textLength="40" x="142" y="162.1426">draw()</text></g><!--class App--><g id="elem_App"><rect codeLine="13" fill="#F1F1F1" height="206.4844" id="App" rx="2.5" ry="2.5" style="stroke:#181818;stroke-width:0.5;" width="217" x="7" y="273"/><ellipse cx="98.75" cy="289" fill="#ADD1B2" rx="11" ry="11" style="stroke:#181818;stroke-width:1.0;"/><path d="M101.5156,284.875 Q101.6719,284.6563 101.8594,284.5469 Q102.0469,284.4375 102.2656,284.4375 Q102.6406,284.4375 102.875,284.6953 Q103.1094,284.9531 103.1094,285.5625 L103.1094,287.0156 Q103.1094,287.625 102.875,287.8906 Q102.6406,288.1563 102.2656,288.1563 Q101.9219,288.1563 101.7188,287.9531 Q101.5156,287.7656 101.4063,287.25 Q101.3594,286.8906 101.1719,286.7031 Q100.8438,286.3281 100.2344,286.1094 Q99.625,285.8906 99,285.8906 Q98.2344,285.8906 97.6016,286.2188 Q96.9688,286.5469 96.4766,287.2969 Q95.9844,288.0469 95.9844,289.0781 L95.9844,290.1719 Q95.9844,291.4063 96.875,292.2266 Q97.7656,293.0469 99.3594,293.0469 Q100.2969,293.0469 100.9531,292.7969 Q101.3438,292.6406 101.7656,292.2031 Q102.0313,291.9375 102.1797,291.8594 Q102.3281,291.7813 102.5313,291.7813 Q102.8594,291.7813 103.1172,292.0391 Q103.375,292.2969 103.375,292.6406 Q103.375,292.9844 103.0313,293.3906 Q102.5313,293.9688 101.7344,294.2969 Q100.6563,294.75 99.3594,294.75 Q97.8438,294.75 96.6406,294.125 Q95.6563,293.625 94.9688,292.5547 Q94.2813,291.4844 94.2813,290.2031 L94.2813,289.0469 Q94.2813,287.7188 94.8984,286.5703 Q95.5156,285.4219 96.6094,284.8047 Q97.7031,284.1875 98.9375,284.1875 Q99.6719,284.1875 100.3203,284.3516 Q100.9688,284.5156 101.5156,284.875 Z " fill="#000000"/><text fill="#000000" font-family="sans-serif" font-size="14" lengthAdjust="spacing" textLength="25" x="119.25" y="294.7285">App</text><line style="stroke:#181818;stroke-width:0.5;" x1="8" x2="223" y1="305" y2="305"/><text fill="#000000" font-family="sans-serif" font-size="14" lengthAdjust="spacing" textLength="75" x="13" y="323.5332">clock: Clock</text><text fill="#000000" font-family="sans-serif" font-size="14" lengthAdjust="spacing" textLength="154" x="13" y="341.1426">screen: pygame.Surface</text><text fill="#000000" font-family="sans-serif" font-size="14" lengthAdjust="spacing" textLength="205" x="13" y="358.752">all_sprites: pygame.sprite.Group</text><text fill="#000000" font-family="sans-serif" font-size="14" lengthAdjust="spacing" textLength="83" x="13" y="376.3613">running: bool</text><text fill="#000000" font-family="sans-serif" font-size="14" lengthAdjust="spacing" textLength="54" x="13" y="393.9707">timer: int</text><line style="stroke:#181818;stroke-width:0.5;" x1="8" x2="223" y1="401.0469" y2="401.0469"/><text fill="#000000" font-family="sans-serif" font-size="14" lengthAdjust="spacing" textLength="103" x="13" y="419.5801">handle_events()</text><text fill="#000000" font-family="sans-serif" font-size="14" lengthAdjust="spacing" textLength="54" x="13" y="437.1895">update()</text><text fill="#000000" font-family="sans-serif" font-size="14" lengthAdjust="spacing" textLength="40" x="13" y="454.7988">draw()</text><text fill="#000000" font-family="sans-serif" font-size="14" lengthAdjust="spacing" textLength="31" x="13" y="472.4082">run()</text></g><!--class Ball--><g id="elem_Ball"><rect codeLine="25" fill="#F1F1F1" height="171.2656" id="Ball" rx="2.5" ry="2.5" style="stroke:#181818;stroke-width:0.5;" width="161" x="259" y="290.5"/><ellipse cx="323.75" cy="306.5" fill="#ADD1B2" rx="11" ry="11" style="stroke:#181818;stroke-width:1.0;"/><path d="M326.5156,302.375 Q326.6719,302.1563 326.8594,302.0469 Q327.0469,301.9375 327.2656,301.9375 Q327.6406,301.9375 327.875,302.1953 Q328.1094,302.4531 328.1094,303.0625 L328.1094,304.5156 Q328.1094,305.125 327.875,305.3906 Q327.6406,305.6563 327.2656,305.6563 Q326.9219,305.6563 326.7188,305.4531 Q326.5156,305.2656 326.4063,304.75 Q326.3594,304.3906 326.1719,304.2031 Q325.8438,303.8281 325.2344,303.6094 Q324.625,303.3906 324,303.3906 Q323.2344,303.3906 322.6016,303.7188 Q321.9688,304.0469 321.4766,304.7969 Q320.9844,305.5469 320.9844,306.5781 L320.9844,307.6719 Q320.9844,308.9063 321.875,309.7266 Q322.7656,310.5469 324.3594,310.5469 Q325.2969,310.5469 325.9531,310.2969 Q326.3438,310.1406 326.7656,309.7031 Q327.0313,309.4375 327.1797,309.3594 Q327.3281,309.2813 327.5313,309.2813 Q327.8594,309.2813 328.1172,309.5391 Q328.375,309.7969 328.375,310.1406 Q328.375,310.4844 328.0313,310.8906 Q327.5313,311.4688 326.7344,311.7969 Q325.6563,312.25 324.3594,312.25 Q322.8438,312.25 321.6406,311.625 Q320.6563,311.125 319.9688,310.0547 Q319.2813,308.9844 319.2813,307.7031 L319.2813,306.5469 Q319.2813,305.2188 319.8984,304.0703 Q320.5156,302.9219 321.6094,302.3047 Q322.7031,301.6875 323.9375,301.6875 Q324.6719,301.6875 325.3203,301.8516 Q325.9688,302.0156 326.5156,302.375 Z " fill="#000000"/><text fill="#000000" font-family="sans-serif" font-size="14" lengthAdjust="spacing" textLength="23" x="344.25" y="312.2285">Ball</text><line style="stroke:#181818;stroke-width:0.5;" x1="260" x2="419" y1="322.5" y2="322.5"/><text fill="#000000" font-family="sans-serif" font-size="14" lengthAdjust="spacing" textLength="78" x="265" y="341.0332">diameter: int</text><text fill="#000000" font-family="sans-serif" font-size="14" lengthAdjust="spacing" textLength="149" x="265" y="358.6426">image: pygame.Surface</text><text fill="#000000" font-family="sans-serif" font-size="14" lengthAdjust="spacing" textLength="58" x="265" y="376.252">farge: list</text><text fill="#000000" font-family="sans-serif" font-size="14" lengthAdjust="spacing" textLength="115" x="265" y="393.8613">rect: pygame.Rect</text><text fill="#000000" font-family="sans-serif" font-size="14" lengthAdjust="spacing" textLength="37" x="265" y="411.4707">dx: int</text><text fill="#000000" font-family="sans-serif" font-size="14" lengthAdjust="spacing" textLength="38" x="265" y="429.0801">dy: int</text><line style="stroke:#181818;stroke-width:0.5;" x1="260" x2="419" y1="436.1563" y2="436.1563"/><text fill="#000000" font-family="sans-serif" font-size="14" lengthAdjust="spacing" textLength="54" x="265" y="454.6895">update()</text></g><!--link Group to Sprite--><g id="link_Group_Sprite"><path codeLine="10" d="M217.03,127.5 C228.61,127.5 240.19,127.5 251.77,127.5 " fill="none" id="Group-Sprite" style="stroke:#181818;stroke-width:1.0;"/><text fill="#000000" font-family="sans-serif" font-size="13" lengthAdjust="spacing" textLength="5" x="225.0035" y="123.7307">*</text><text fill="#000000" font-family="sans-serif" font-size="13" lengthAdjust="spacing" textLength="5" x="239.0913" y="123.3814">*</text></g><!--reverse link Sprite to Ball--><g id="link_Sprite_Ball"><path codeLine="35" d="M295.2699,169.2886 C302.0399,200.8086 310.75,241.27 321.29,290.29 " fill="none" id="Sprite-backto-Ball" style="stroke:#181818;stroke-width:1.0;"/><polygon fill="none" points="291.49,151.69,289.4037,170.5486,301.1361,168.0287,291.49,151.69" style="stroke:#181818;stroke-width:1.0;"/></g><!--link Group to App--><g id="link_Group_App"><path codeLine="36" d="M160.58,169.2 C154.4,197.44 148.4391,224.6582 140.4591,261.0682 " fill="none" id="Group-to-App" style="stroke:#181818;stroke-width:1.0;"/><polygon fill="#181818" points="137.89,272.79,143.0818,267.7855,140.4591,261.0682,135.2673,266.0728,137.89,272.79" style="stroke:#181818;stroke-width:1.0;"/><text fill="#000000" font-family="sans-serif" font-size="13" lengthAdjust="spacing" textLength="59" x="148.5" y="239.4951">all_sprites</text><text fill="#000000" font-family="sans-serif" font-size="13" lengthAdjust="spacing" textLength="7" x="151.6006" y="190.6266">1</text><text fill="#000000" font-family="sans-serif" font-size="13" lengthAdjust="spacing" textLength="7" x="132.2772" y="262.1133">1</text></g><!--SRC=[RL3BRiCW4Bpp5IjEIIf7wjM7IcqFkJSV46rXuw9WZ7WqYTh-Up5Gx4CvcDsPPNOy5iK51m9kxmEEjFVMgK0SlXYa8pHw3yUCLUY7hPY3cwAjn7mUKCfDaTWke7HutMphw_bRdl4TXyvr-IuhM18lmi_MDWkJkFJmEbyPyC8HcHwguMDqPnIKATJwLBRxnfT-drVc8HUDKMReuNsQT4Q26idre4p8xGSQgUb4dsI2hxwZbHYeDgl_IMAfQhPVaeFgMwgqFQnrrPY2_jVt6TtCQENBf2CHsk1RQehYRT6IzwLktfADRA2BtVVJNwHpai0VEUmId8kIVhzEYx5V]--></g></svg>