<?xml version="1.0" encoding="us-ascii" standalone="no"?><svg xmlns="http://www.w3.org/2000/svg" xmlns:xlink="http://www.w3.org/1999/xlink" contentStyleType="text/css" height="275px" preserveAspectRatio="none" style="width:343px;height:275px;background:#FFFFFF;" version="1.1" viewBox="0 0 343 275" width="343px" zoomAndPan="magnify"><defs/><g><!--class Person--><g id="elem_Person"><rect codeLine="3" fill="#F1F1F1" height="100.8281" id="Person" rx="2.5" ry="2.5" style="stroke:#181818;stroke-width:0.5;" width="112" x="117.5" y="7"/><ellipse cx="148.25" cy="23" fill="#ADD1B2" rx="11" ry="11" style="stroke:#181818;stroke-width:1.0;"/><path d="M151.0156,18.875 Q151.1719,18.6563 151.3594,18.5469 Q151.5469,18.4375 151.7656,18.4375 Q152.1406,18.4375 152.375,18.6953 Q152.6094,18.9531 152.6094,19.5625 L152.6094,21.0156 Q152.6094,21.625 152.375,21.8906 Q152.1406,22.1563 151.7656,22.1563 Q151.4219,22.1563 151.2188,21.9531 Q151.0156,21.7656 150.9063,21.25 Q150.8594,20.8906 150.6719,20.7031 Q150.3438,20.3281 149.7344,20.1094 Q149.125,19.8906 148.5,19.8906 Q147.7344,19.8906 147.1016,20.2188 Q146.4688,20.5469 145.9766,21.2969 Q145.4844,22.0469 145.4844,23.0781 L145.4844,24.1719 Q145.4844,25.4063 146.375,26.2266 Q147.2656,27.0469 148.8594,27.0469 Q149.7969,27.0469 150.4531,26.7969 Q150.8438,26.6406 151.2656,26.2031 Q151.5313,25.9375 151.6797,25.8594 Q151.8281,25.7813 152.0313,25.7813 Q152.3594,25.7813 152.6172,26.0391 Q152.875,26.2969 152.875,26.6406 Q152.875,26.9844 152.5313,27.3906 Q152.0313,27.9688 151.2344,28.2969 Q150.1563,28.75 148.8594,28.75 Q147.3438,28.75 146.1406,28.125 Q145.1563,27.625 144.4688,26.5547 Q143.7813,25.4844 143.7813,24.2031 L143.7813,23.0469 Q143.7813,21.7188 144.3984,20.5703 Q145.0156,19.4219 146.1094,18.8047 Q147.2031,18.1875 148.4375,18.1875 Q149.1719,18.1875 149.8203,18.3516 Q150.4688,18.5156 151.0156,18.875 Z " fill="#000000"/><text fill="#000000" font-family="sans-serif" font-size="14" lengthAdjust="spacing" textLength="45" x="165.75" y="28.7285">Person</text><line style="stroke:#181818;stroke-width:0.5;" x1="118.5" x2="228.5" y1="39" y2="39"/><text fill="#000000" font-family="sans-serif" font-size="14" lengthAdjust="spacing" textLength="72" x="123.5" y="57.5332">String navn</text><text fill="#000000" font-family="sans-serif" font-size="14" lengthAdjust="spacing" textLength="51" x="123.5" y="75.1426">int alder</text><line style="stroke:#181818;stroke-width:0.5;" x1="118.5" x2="228.5" y1="82.2188" y2="82.2188"/><text fill="#000000" font-family="sans-serif" font-size="14" lengthAdjust="spacing" textLength="100" x="123.5" y="100.752">oppdaterAlder()</text></g><!--class Student--><g id="elem_Student"><rect codeLine="9" fill="#F1F1F1" height="100.8281" id="Student" rx="2.5" ry="2.5" style="stroke:#181818;stroke-width:0.5;" width="151" x="7" y="168"/><ellipse cx="53.75" cy="184" fill="#ADD1B2" rx="11" ry="11" style="stroke:#181818;stroke-width:1.0;"/><path d="M56.5156,179.875 Q56.6719,179.6563 56.8594,179.5469 Q57.0469,179.4375 57.2656,179.4375 Q57.6406,179.4375 57.875,179.6953 Q58.1094,179.9531 58.1094,180.5625 L58.1094,182.0156 Q58.1094,182.625 57.875,182.8906 Q57.6406,183.1563 57.2656,183.1563 Q56.9219,183.1563 56.7188,182.9531 Q56.5156,182.7656 56.4063,182.25 Q56.3594,181.8906 56.1719,181.7031 Q55.8438,181.3281 55.2344,181.1094 Q54.625,180.8906 54,180.8906 Q53.2344,180.8906 52.6016,181.2188 Q51.9688,181.5469 51.4766,182.2969 Q50.9844,183.0469 50.9844,184.0781 L50.9844,185.1719 Q50.9844,186.4063 51.875,187.2266 Q52.7656,188.0469 54.3594,188.0469 Q55.2969,188.0469 55.9531,187.7969 Q56.3438,187.6406 56.7656,187.2031 Q57.0313,186.9375 57.1797,186.8594 Q57.3281,186.7813 57.5313,186.7813 Q57.8594,186.7813 58.1172,187.0391 Q58.375,187.2969 58.375,187.6406 Q58.375,187.9844 58.0313,188.3906 Q57.5313,188.9688 56.7344,189.2969 Q55.6563,189.75 54.3594,189.75 Q52.8438,189.75 51.6406,189.125 Q50.6563,188.625 49.9688,187.5547 Q49.2813,186.4844 49.2813,185.2031 L49.2813,184.0469 Q49.2813,182.7188 49.8984,181.5703 Q50.5156,180.4219 51.6094,179.8047 Q52.7031,179.1875 53.9375,179.1875 Q54.6719,179.1875 55.3203,179.3516 Q55.9688,179.5156 56.5156,179.875 Z " fill="#000000"/><text fill="#000000" font-family="sans-serif" font-size="14" lengthAdjust="spacing" textLength="49" x="74.25" y="189.7285">Student</text><line style="stroke:#181818;stroke-width:0.5;" x1="8" x2="157" y1="200" y2="200"/><text fill="#000000" font-family="sans-serif" font-size="14" lengthAdjust="spacing" textLength="139" x="13" y="218.5332">String studentnummer</text><text fill="#000000" font-family="sans-serif" font-size="14" lengthAdjust="spacing" textLength="81" x="13" y="236.1426">String klasse</text><line style="stroke:#181818;stroke-width:0.5;" x1="8" x2="157" y1="243.2188" y2="243.2188"/><text fill="#000000" font-family="sans-serif" font-size="14" lengthAdjust="spacing" textLength="109" x="13" y="261.752">oppdaterKlasse()</text></g><!--class L?rer--><g id="elem_L&#230;rer"><rect codeLine="15" fill="#F1F1F1" height="65.6094" id="L&#230;rer" rx="2.5" ry="2.5" style="stroke:#181818;stroke-width:0.5;" width="143" x="193" y="185.5"/><ellipse cx="241.25" cy="201.5" fill="#ADD1B2" rx="11" ry="11" style="stroke:#181818;stroke-width:1.0;"/><path d="M244.0156,197.375 Q244.1719,197.1563 244.3594,197.0469 Q244.5469,196.9375 244.7656,196.9375 Q245.1406,196.9375 245.375,197.1953 Q245.6094,197.4531 245.6094,198.0625 L245.6094,199.5156 Q245.6094,200.125 245.375,200.3906 Q245.1406,200.6563 244.7656,200.6563 Q244.4219,200.6563 244.2188,200.4531 Q244.0156,200.2656 243.9063,199.75 Q243.8594,199.3906 243.6719,199.2031 Q243.3438,198.8281 242.7344,198.6094 Q242.125,198.3906 241.5,198.3906 Q240.7344,198.3906 240.1016,198.7188 Q239.4688,199.0469 238.9766,199.7969 Q238.4844,200.5469 238.4844,201.5781 L238.4844,202.6719 Q238.4844,203.9063 239.375,204.7266 Q240.2656,205.5469 241.8594,205.5469 Q242.7969,205.5469 243.4531,205.2969 Q243.8438,205.1406 244.2656,204.7031 Q244.5313,204.4375 244.6797,204.3594 Q244.8281,204.2813 245.0313,204.2813 Q245.3594,204.2813 245.6172,204.5391 Q245.875,204.7969 245.875,205.1406 Q245.875,205.4844 245.5313,205.8906 Q245.0313,206.4688 244.2344,206.7969 Q243.1563,207.25 241.8594,207.25 Q240.3438,207.25 239.1406,206.625 Q238.1563,206.125 237.4688,205.0547 Q236.7813,203.9844 236.7813,202.7031 L236.7813,201.5469 Q236.7813,200.2188 237.3984,199.0703 Q238.0156,197.9219 239.1094,197.3047 Q240.2031,196.6875 241.4375,196.6875 Q242.1719,196.6875 242.8203,196.8516 Q243.4688,197.0156 244.0156,197.375 Z " fill="#000000"/><text fill="#000000" font-family="sans-serif" font-size="14" lengthAdjust="spacing" textLength="38" x="261.75" y="207.2285">L&#230;rer</text><line style="stroke:#181818;stroke-width:0.5;" x1="194" x2="335" y1="217.5" y2="217.5"/><text fill="#000000" font-family="sans-serif" font-size="14" lengthAdjust="spacing" textLength="131" x="199" y="236.0332">String ansattnummer</text><line style="stroke:#181818;stroke-width:0.5;" x1="194" x2="335" y1="243.1094" y2="243.1094"/></g><!--reverse link Person to Student--><g id="link_Person_Student"><path codeLine="19" d="M136.0162,123.9908 C125.1662,142.9408 121.77,148.88 110.94,167.8 " fill="none" id="Person-backto-Student" style="stroke:#181818;stroke-width:1.0;"/><polygon fill="none" points="144.96,108.37,130.8093,121.0095,141.2231,126.972,144.96,108.37" style="stroke:#181818;stroke-width:1.0;"/></g><!--reverse link Person to L?rer--><g id="link_Person_L&#230;rer"><path codeLine="20" d="M210.9819,123.9919 C225.3719,149.1319 233.45,163.26 246.09,185.34 " fill="none" id="Person-backto-L&#230;rer" style="stroke:#181818;stroke-width:1.0;"/><polygon fill="none" points="202.04,108.37,205.7746,126.9725,216.1892,121.0112,202.04,108.37" style="stroke:#181818;stroke-width:1.0;"/></g><!--SRC=[Kqn9JSlCIrLmSGpoTWzoTVNZuahEIImkLWX8BIhEprEevb80Wk2IeioyT8MynB8yC3yphqGXCISbjGZCooyeI4aiIIro18beQ7BLmim8BYbDIGKgHJ6a62AOLvgR2zKFbSW6wKb5CT4RB8HifC_XPKMfHQWc9kOL9vR030IgX3hTfaPN5-O453686Lm0]--></g></svg>